<?xml version="1.0" encoding="UTF-8" standalone="no"?>
<svg width="443px" height="352px" viewBox="0 0 443 352" version="1.1" xmlns="http://www.w3.org/2000/svg" xmlns:xlink="http://www.w3.org/1999/xlink">
    <!-- Generator: Sketch 46.1 (44463) - http://www.bohemiancoding.com/sketch -->
    <title>[Assets]-Spiderweb-2SVG</title>
    <desc>Created with Sketch.</desc>
    <defs>
        <linearGradient x1="50%" y1="0%" x2="-53.2623839%" y2="281.771385%" id="linearGradient-1">
            <stop stop-color="#EEEEEE" offset="0%"></stop>
            <stop stop-color="#BAAEAE" offset="100%"></stop>
        </linearGradient>
        <filter x="-72.7%" y="-71.4%" width="245.5%" height="385.7%" filterUnits="objectBoundingBox" id="filter-2">
            <feOffset dx="0" dy="20" in="SourceAlpha" result="shadowOffsetOuter1"></feOffset>
            <feGaussianBlur stdDeviation="10" in="shadowOffsetOuter1" result="shadowBlurOuter1"></feGaussianBlur>
            <feColorMatrix values="0 0 0 0 0.824431335   0 0 0 0 0.824431335   0 0 0 0 0.824431335  0 0 0 0.4 0" type="matrix" in="shadowBlurOuter1" result="shadowMatrixOuter1"></feColorMatrix>
            <feMerge>
                <feMergeNode in="shadowMatrixOuter1"></feMergeNode>
                <feMergeNode in="SourceGraphic"></feMergeNode>
            </feMerge>
        </filter>
        <linearGradient x1="43.4723382%" y1="-131.683905%" x2="305.549591%" y2="844.974278%" id="linearGradient-3">
            <stop stop-color="#E2E3E4" offset="0%"></stop>
            <stop stop-color="#DFE5E8" offset="100%"></stop>
        </linearGradient>
    </defs>
    <g id="Assets" stroke="none" stroke-width="1" fill="none" fill-rule="evenodd">
        <g id="[Assets]-Spiderweb-2">
            <g id="Pajeczyna-Copy">
                <g id="Group-2">
                    <g id="Group-34" transform="translate(0.000000, 14.893528)" stroke="url(#linearGradient-1)">
                        <polyline id="Stroke-28" points="222.784227 10.551542 265.010111 25.1109341 281.02394 35.3027231 345.089985 70.2478384 369.841166 87.720396 442.187637 128.489697"></polyline>
                        <polyline id="Stroke-30" points="0.0145872795 3.27184598 107.760953 1.81311802 196.576034 1.81311802 222.783798 10.5526146 270.833868 0.358680445 435.361219 1.81311802"></polyline>
                        <path d="M3.37995848,128.488839 C28.4529452,115.647449 45.7241795,106.53754 55.1936615,101.159113 C65.8246451,95.1209817 73.8940723,87.5238146 81.4763575,83.6373154 C99.1894522,74.558004 110.87065,70.1775547 116.519952,70.4959674 L135.793929,52.9741701 L180.55963,26.5666588 L195.119022,16.3748698 L221.328931,10.550684" id="Stroke-32"></path>
                        <path d="M222.784227,10.551542 L222.784227,286.043341" id="Stroke-26"></path>
                        <polyline id="Stroke-27" points="222.784227 9.09560282 253.359594 54.2303619 340.722382 204.200467"></polyline>
                        <polyline id="Stroke-35" points="110.671759 196.9212 167.45489 96.4556022 222.783583 10.551542"></polyline>
                    </g>
                    <g id="Group-65" filter="url(#filter-2)" transform="translate(223.334876, 298.599139) rotate(-20.000000) translate(-223.334876, -298.599139) translate(195.834876, 284.599139)">
                        <path d="M17.2364993,8.28902765 L13.3786329,2.88888359 C12.8364462,2.12947476 11.8485196,1.83492144 10.9796308,2.1729192 L3.85474243,4.94380567 L12.1178752,0.398648212 C12.8911862,-0.0253695355 13.8487017,0.092799345 14.4934172,0.694939302 L20.5817212,6.37747223 L17.2364993,8.28902765 Z M13.7147191,13.0815578 L8.15991279,9.44960246 C7.37965063,8.93869583 6.35175514,9.02297805 5.66446408,9.65379134 L0.031457812,14.8210732 L6.08239961,7.58670482 C6.64804623,6.90984042 7.5838395,6.67437155 8.40233278,7.00107375 L16.1389189,10.086498 L13.7147191,13.0815578 Z M14.258209,19.2816878 L7.80844726,17.7142123 C6.90219622,17.4943834 5.9620585,17.9175323 5.52500742,18.7412389 L1.94344768,25.4942429 L5.22697856,16.654168 C5.5345652,15.8269858 6.33741848,15.2917503 7.21847175,15.3256369 L15.5406889,15.6479947 L14.258209,19.2816878 Z M36.8310719,8.28902765 L33.4858499,6.37747223 L39.5741539,0.694939302 C40.2188694,0.092799345 41.1763849,-0.0253695355 41.949696,0.398648212 L50.2128287,4.94380567 L43.0879403,2.1729192 C42.2190515,1.83492144 41.230256,2.12947476 40.6889383,2.88888359 L36.8310719,8.28902765 Z M40.3524176,13.0815578 L37.9290867,10.086498 L45.6648039,7.00107375 C46.4841661,6.67437155 47.4199594,6.90984042 47.985606,7.58670482 L54.0365478,14.8210732 L48.4026726,9.65379134 C47.7153816,9.02297805 46.688355,8.93869583 45.9072239,9.44960246 L40.3524176,13.0815578 Z M39.8093621,19.2816878 L38.5260133,15.6479947 L46.8490994,15.3256369 C47.7301527,15.2917503 48.5330059,15.8269858 48.8397237,16.654168 L52.1241235,25.4942429 L48.5425637,18.7412389 C48.1055126,17.9175323 47.1653749,17.4943834 46.258255,17.7142123 L39.8093621,19.2816878 Z" id="Combined-Shape" fill="#B9C3C8"></path>
                        <path d="M41.6103949,15.4582294 C41.6103949,22.3207133 35.2979175,27.8842085 27.5118048,27.8842085 C19.725692,27.8842085 13.4132146,22.3207133 13.4132146,15.4582294 C13.4132146,8.59574541 19.725692,3.03225025 27.5118048,3.03225025 C35.2979175,3.03225025 41.6103949,8.59574541 41.6103949,15.4582294" id="Fill-49" fill="#B9C3C8"></path>
                        <path d="M23.927117,14.7412223 C23.927117,16.1931355 22.7506415,17.369611 21.2987283,17.369611 C19.8468151,17.369611 18.6703396,16.1931355 18.6703396,14.7412223 C18.6703396,13.2893091 19.8468151,12.1128336 21.2987283,12.1128336 C22.7506415,12.1128336 23.927117,13.2893091 23.927117,14.7412223" id="Fill-53" fill="#FFFFFF"></path>
                        <path d="M23.927117,17.2251876 C23.927117,18.6771008 22.7506415,19.8535763 21.2987283,19.8535763 C19.8468151,19.8535763 18.6703396,18.6771008 18.6703396,17.2251876 C18.6703396,15.7732743 19.8468151,14.5967989 21.2987283,14.5967989 C22.7506415,14.5967989 23.927117,15.7732743 23.927117,17.2251876 Z" id="Stroke-55"></path>
                        <path d="M22.9712524,16.0304654 C22.9712524,16.8220231 22.3291436,17.464132 21.5375858,17.464132 C20.7460281,17.464132 20.1039193,16.8220231 20.1039193,16.0304654 C20.1039193,15.2389077 20.7460281,14.5967989 21.5375858,14.5967989 C22.3291436,14.5967989 22.9712524,15.2389077 22.9712524,16.0304654" id="Fill-57" fill="#313234"></path>
                        <path d="M34.4416276,14.7412223 C34.4416276,16.1931355 33.2651521,17.369611 31.8132389,17.369611 C30.3613257,17.369611 29.1839813,16.1931355 29.1839813,14.7412223 C29.1839813,13.2893091 30.3613257,12.1128336 31.8132389,12.1128336 C33.2651521,12.1128336 34.4416276,13.2893091 34.4416276,14.7412223" id="Fill-59" fill="#FFFFFF"></path>
                        <path d="M34.4416276,14.7412223 C34.4416276,16.1931355 33.2651521,17.369611 31.8132389,17.369611 C30.3613257,17.369611 29.1839813,16.1931355 29.1839813,14.7412223 C29.1839813,13.2893091 30.3613257,12.1128336 31.8132389,12.1128336 C33.2651521,12.1128336 34.4416276,13.2893091 34.4416276,14.7412223 Z" id="Stroke-61"></path>
                        <path d="M33.485763,16.0304654 C33.485763,16.8220231 32.8436542,17.464132 32.0520964,17.464132 C31.2596698,17.464132 30.6184299,16.8220231 30.6184299,16.0304654 C30.6184299,15.2389077 31.2596698,14.5967989 32.0520964,14.5967989 C32.8436542,14.5967989 33.485763,15.2389077 33.485763,16.0304654" id="Fill-63" fill="#313234"></path>
                    </g>
                    <g id="Group-25" transform="translate(21.902247, 0.000000)" stroke="url(#linearGradient-3)" stroke-width="0.5">
                        <path d="M178.846582,5.08560756 C179.989968,7.04630954 181.124772,9.24941779 180.976754,11.4675424 C180.856624,13.2566293 178.662096,16.3113772 178.662096,16.3113772 C180.328907,19.261011 181.131208,24.1391689 179.884854,27.2904503 L179.318524,28.7212908 L181.002497,28.7620494 C183.965001,28.7105649 186.794505,29.9998229 188.695141,32.2737224 C188.695141,32.2737224 190.535713,34.5090085 190.5636,34.5090085 C190.5636,34.5090085 197.28662,36.851554 199.073562,39.0417911 L201.300267,41.7747608 L202.042502,40.751506 C204.301385,37.3234954 207.913882,35.0217085 211.974723,34.423201 L212.90788,33.0181027 C214.817098,30.1585669 217.916895,28.3115599 221.34276,28.0005076 L222.872279,27.8610703 L222.453968,27.0780767 C220.207956,22.8885242 221.647377,17.6735717 225.72538,15.2280572 L225.064662,14.5673393 C221.885493,11.3881704 220.716365,6.71809575 222.02064,2.41484829" id="Stroke-1"></path>
                        <path d="M165.182592,10.0506456 C164.622698,12.2408827 162.091376,15.5251658 161.458545,15.9327515 C161.203268,16.3725151 161.05525,16.7500682 161.160364,16.9731678 C163.672379,19.9549793 165.075332,24.2367749 164.839362,28.4156015 C164.740683,30.2433018 164.476825,32.0388243 164.052078,33.7442489 C163.974851,34.0574464 163.625185,35.3338333 163.51149,35.6212885 L162.623382,38.3456775 C162.623382,38.3456775 164.588375,38.6266972 165.337045,38.8090382 C169.387161,39.7979699 174.27819,41.8251727 178.225336,44.791968 C178.851731,45.2617642 181.164244,47.6793912 181.666218,48.1320259 C181.889317,48.3443996 182.455647,48.6876297 183.200027,49.1273933 C183.45316,49.2239267 184.506447,49.3311861 184.83037,49.4405907 C187.503275,50.3587313 193.127958,51.6887479 196.326434,53.570078 C197.285333,53.8339361 200.170611,56.67202 200.719779,57.1439614 C200.979347,57.367061 201.846003,56.6848912 201.946827,56.9616204 C203.883932,54.0227127 215.264155,49.7194652 220.805176,50.9207706 L220.807321,50.9207706 C221.013259,50.8778668 221.139825,50.1999873 221.350054,50.1678095 L221.58817,49.1681518 C221.547411,48.8313573 222.040804,47.6729557 222.10945,47.3468871 C222.667199,44.6525307 224.733015,42.4279706 227.075561,40.8212247 C227.12061,40.7890468 227.165659,40.756869 227.212853,40.7289816 C230.023049,38.8369256 233.307333,37.6871048 236.716037,37.5884261 C237.194414,37.5734098 239.067163,37.4918926 239.54554,37.564829 L238.801159,36.2155057 C238.608093,35.8529689 237.910906,34.5143714 237.765034,34.1411087 C236.595906,31.1635875 236.115384,28.033758 236.537986,24.9918812 C237.067847,21.1326877 239.2066,17.5995627 242.535932,15.2269846 C242.415802,15.1840809 241.692873,14.5426696 241.589904,14.4740236 C239.618476,13.1397165 238.406445,10.9430439 237.66421,8.70990297" id="Stroke-3"></path>
                        <path d="M149.386928,8.63653753 C148.393706,11.2279248 145.521299,14.7374527 144.255638,15.5547694 C143.618517,16.211197 143.20235,16.7367681 143.303174,16.9448513 C147.456259,21.0807741 149.69798,27.2803679 149.189571,33.4070253 C148.975052,36.0606231 148.537433,38.6734623 147.904603,41.1940584 C147.833812,41.4772232 147.24174,43.6932026 147.138771,43.9527704 L145.928885,47.9749982 C145.928885,47.9749982 148.187768,48.4362136 149.674383,48.8588157 C154.885045,50.3389955 162.06928,53.2993552 167.756174,57.3087119 C169.036851,58.2118361 171.793418,60.8504176 172.767334,61.755687 C173.211388,62.178289 173.936461,62.7210216 174.785956,63.3559973 C175.011201,63.4418049 176.804578,63.5211768 177.098469,63.6112747 C180.331267,64.5808998 188.339255,65.7564629 193.579949,68.0990084 C195.497748,68.6267247 199.039453,71.5699228 200.139935,72.5116604 C200.65907,72.9578596 201.650147,72.6189199 201.84965,73.1723784 C203.591543,70.5295066 223.020512,64.149717 230.322732,67.296708 L230.324877,67.2988532 C230.511509,67.2602398 230.537251,65.9388039 230.726028,65.9109164 L230.865465,64.424301 C230.781803,63.7464216 231.204405,62.3327426 231.307374,61.6741698 C231.931623,57.696991 234.598092,54.2046246 238.019667,51.8213206 C238.086168,51.7741264 238.150524,51.7312227 238.217025,51.6840285 C242.312189,48.884558 247.130282,47.2799572 252.087811,47.174843 C253.046711,47.1533911 255.260545,47.1212133 256.217299,47.2713765 L255.15114,45.351433 C254.975235,45.0253644 253.752477,42.7621909 253.617331,42.4275416 C251.90118,38.2122468 250.98733,33.8081755 251.369173,29.436282 C251.849696,23.8738091 254.743554,18.7360834 259.344983,15.2265556 C259.104722,15.1386029 258.326019,14.5122079 258.113645,14.3792063 C255.638098,12.8046381 254.0099,10.1660567 253.121792,7.36873132" id="Stroke-5"></path>
                        <path d="M133.591264,7.2202843 C132.164714,10.214967 128.951222,13.9518848 127.05273,15.1767872 C126.033766,16.052024 125.351596,16.7256131 125.443839,16.9165348 C131.237992,22.2044237 134.318483,30.3261061 133.539779,38.4005943 C133.20942,41.8757992 132.598042,45.3081002 131.759273,48.6438678 C131.694917,48.8948549 130.856149,52.0525718 130.766051,52.282107 L129.232241,57.6021736 C129.232241,57.6021736 131.795741,58.2199878 134.009576,58.906448 C140.395801,60.8843115 149.85179,64.7713925 157.289158,69.8297462 C159.230553,71.1511821 162.420448,74.0214439 163.870595,75.3772028 C164.535603,76.0100333 165.417275,76.7565588 166.369739,77.5824562 C166.571387,77.659683 169.104854,77.7068772 169.368712,77.7798135 C173.16784,78.8073587 183.550551,79.8220327 190.83561,82.6257936 C193.708017,83.4195132 197.90615,86.4678256 199.557945,87.8815046 C200.338794,88.5486582 201.452146,88.5508033 201.750328,89.3831364 C203.301299,87.0320101 230.776869,78.5821139 239.842434,83.6747906 C239.842434,83.6747906 239.844579,83.6769358 239.844579,83.6769358 C240.009758,83.6426128 239.932532,81.6797656 240.099856,81.6561686 L240.14276,79.6761599 C240.016194,78.6636311 240.376586,76.9925295 240.505297,76.0014526 C241.196048,70.7264348 244.461024,65.9834238 248.963774,62.8214164 C249.049581,62.7634964 249.135389,62.7012859 249.221196,62.6433658 C254.605619,58.9321903 260.953231,56.8728097 267.461731,56.7612599 C268.899008,56.7376628 271.456072,56.7526791 272.891203,56.9757787 L271.498976,54.4895056 C271.342377,54.19776 269.591903,51.0100104 269.469628,50.7139744 C267.206454,45.2587609 265.859276,39.5847382 266.200361,33.8828281 C266.629398,26.6127853 270.278364,19.8747493 276.156179,15.2261265 C275.797933,15.0952701 274.959164,14.4796011 274.637386,14.2822438 C271.653429,12.4652694 269.6155,9.38906954 268.58152,6.02755968" id="Stroke-7"></path>
                        <path d="M117.7956,5.80617626 C115.937867,9.20415432 112.381145,13.1641717 109.849823,14.7966599 C108.449015,15.892851 107.498697,16.7101677 107.584504,16.8860732 C115.019726,23.3302184 118.938985,33.3675539 117.889988,43.3920182 C117.443789,47.6931204 116.65865,51.940593 115.611798,56.0915321 C115.556023,56.3146317 114.472703,60.4119411 114.393331,60.6135888 L112.537744,67.2293491 C112.537744,67.2293491 115.408005,67.9930361 118.344768,68.9540804 C125.912992,71.4317727 137.63001,76.2412846 146.819996,82.3486353 C149.428545,84.0798022 153.049622,87.190325 154.973856,89.0008638 C155.861964,89.846068 156.900235,90.7899508 157.955667,91.8110603 C158.131573,91.8775612 161.407275,91.8904323 161.638956,91.9462072 C166.015139,93.0338176 178.759702,93.8876025 188.089126,97.1547241 C191.922577,98.2101566 196.774993,101.367874 198.978101,103.251349 C200.018517,104.141602 201.254145,104.484832 201.65315,105.596039 C203.008909,103.538804 238.533225,93.0123657 249.35999,100.052873 L249.364281,100.055018 C249.508008,100.024986 249.329958,97.4207274 249.47583,97.3992755 L249.420055,94.9301639 C249.250586,93.5765502 249.553057,91.6523164 249.705365,90.3265901 C250.462617,83.7515884 254.326101,77.7600778 259.90788,73.8236575 C260.012995,73.7485759 260.120254,73.6734944 260.227513,73.600558 C266.894758,68.9819678 274.77618,66.4656621 282.835652,66.3498219 C284.751305,66.3197893 287.649454,66.3819998 289.562962,66.6823261 L287.846811,63.625433 C287.711664,63.3723008 285.429184,59.2578299 285.319779,59.0004073 C282.511728,52.3074202 280.731222,45.3570105 281.031548,38.3272289 C281.411247,29.3539068 285.813173,21.0134152 292.96523,15.2278427 C292.486853,15.0540825 291.5966,14.4427038 291.163272,14.1874264 C287.66876,12.1259006 285.21681,8.6099372 284.039102,4.68638804" id="Stroke-9"></path>
                        <path d="M89.9572477,20.6019042 C88.0465433,21.9558721 86.7361296,22.9367887 86.7986204,23.063664 C96.2612465,30.7898026 101.201809,43.0380046 99.7948187,55.3278672 C99.1964217,60.5789904 98.2003558,65.7733036 96.9069851,70.8786148 C96.8728992,71.0168521 95.4829517,76.2963801 95.4337165,76.4251491 L93.2276009,84.5527439 C93.2276009,84.5527439 96.3104817,85.469276 100.173551,86.8194566 C108.950672,89.8871881 123.270539,95.7556448 134.482909,103.002687 C137.965352,105.252357 141.917423,108.429921 144.453036,110.827296 C145.627106,111.942663 146.8239,113.131882 147.937373,114.374124 C148.049099,114.415784 152.251134,114.357081 152.396946,114.389273 C157.286379,115.455405 172.704571,115.921245 184.545635,119.62146 C189.620648,121.018982 195.064925,123.993924 197.97927,126.485982 C199.357855,127.665733 200.668269,128.572797 201.1966,130.042278 C202.050642,128.743227 247.617816,115.79437 260.286411,125.442575 C260.382988,125.427426 260.044022,121.998005 260.136812,121.984749 L259.91336,118.937848 C259.688014,117.146444 259.85655,114.997138 260.02698,113.239821 C260.816636,105.125482 265.279996,97.6455189 272.11422,92.7977457 C280.662208,86.8440742 290.319881,83.8180033 300.174495,83.7024899 C302.710108,83.6759787 305.872522,83.8123223 308.406241,84.2080975 L306.317533,80.5059894 C306.232318,80.3450282 303.281994,75.0825431 303.211928,74.9196883 C299.765464,66.822392 297.43058,58.4448339 297.625627,49.893059 C297.869909,38.9571643 303.08884,28.7673722 311.651977,21.6509926 C311.019494,21.4199659 310.135154,20.893528 309.557588,20.5659246 C305.565749,18.3105739 302.683597,14.4361426 301.384545,9.97846363" id="Stroke-13"></path>
                        <path d="M58.2404568,13.6601392 C55.6941184,15.4127579 53.9436449,16.6719834 54.0058554,16.7985495 C66.3664296,26.7050284 72.8041393,42.4979037 70.9378256,58.370151 C70.1462511,65.14251 68.8398315,71.8440779 67.1708751,78.4426767 C67.1386973,78.5692428 65.3195778,85.491765 65.2745288,85.6076052 L62.4536064,96.1125916 C62.4536064,96.1125916 66.2591702,97.2817192 71.3518469,99.0986936 C82.4853735,103.078018 100.955444,110.639806 115.414012,119.902728 C120.030457,122.858798 124.934357,126.702975 128.278705,129.873563 C129.833967,131.347307 131.346324,132.896133 132.710664,134.494298 C132.811488,134.532912 138.320331,134.39991 138.446897,134.45354 C144.697976,134.588687 164.392948,136.083883 179.849029,140.738941 C186.557032,142.588093 193.383021,146.061153 197.233634,149.358307 C199.054899,150.915714 200.66379,152.284344 201.360976,154.225739 C202.137534,153.052321 261.801653,136.306982 277.914161,149.184547 C277.916306,149.184547 277.920596,149.188837 277.920596,149.188837 C278.004259,149.171676 277.519446,144.645329 277.603109,144.632458 L277.251298,140.691747 C276.955262,138.323459 277.090409,135.631248 277.302782,133.308009 C278.263827,122.807313 283.918543,113.096046 292.739556,106.825661 C292.909026,106.705531 293.076351,106.587545 293.243675,106.471705 C303.770114,99.1308714 316.242238,95.2459356 328.956768,95.1107888 C332.307552,95.0743206 336.233246,95.2759683 339.57974,95.7993942 L336.891819,91.0349312 C336.812447,90.8912036 332.940383,84.0030044 332.876027,83.8571316 C328.424761,73.4465334 325.346416,62.6841244 325.526612,51.666438 C325.754002,37.5725517 332.421247,24.431129 343.39603,15.2261265 C342.559406,14.9215098 341.503974,14.3315831 340.735996,13.9046906 C335.70124,11.1009297 332.028678,6.27640151 330.413351,0.660298884" id="Stroke-15"></path>
                        <path d="M30.8211193,22.3752152 C27.6441372,24.3266541 25.453399,25.7104365 25.4986962,25.7945338 C40.5106061,36.675574 48.3017276,54.1658952 45.9895105,71.7823623 C45.0053255,79.2823099 43.4219818,86.709628 41.4186094,94.0452036 C41.4041966,94.1006314 39.1866919,101.946525 39.1661023,101.996218 L35.8408747,113.666626 C35.8408747,113.666626 40.0988132,114.939553 46.3580651,117.080211 C59.3336591,121.514431 81.3707557,129.885932 98.6248778,140.01583 C104.340563,143.372076 109.868883,147.236728 113.988871,150.868201 C115.905766,152.557792 117.660004,154.295165 119.167166,156.061208 C119.216581,156.078409 125.926746,155.894924 125.988515,155.91786 C133.118709,155.852876 156.537371,157.188876 175.292478,162.162082 C183.571574,164.277893 191.381227,167.561509 196.135375,171.338241 C198.381706,173.123397 200.16271,174.950602 201.025416,177.175357 C201.398089,176.653571 274.112477,158.039405 292.960238,172.98005 L292.966415,172.985783 C293.007594,172.978138 292.346667,167.802333 292.385787,167.7966 L291.860751,163.410162 C291.494255,160.699937 291.518963,157.846363 291.759862,155.182009 C292.814051,143.490577 299.386266,132.630561 309.926105,125.660044 C310.125825,125.528164 310.327603,125.396284 310.529382,125.266316 C323.09936,117.106969 338.008321,112.846678 353.191125,112.70333 C357.327585,112.668927 361.75024,112.928864 365.880523,113.52519 L362.676774,108.26911 C362.639713,108.206037 357.902036,100.421306 357.871151,100.356322 C352.546669,88.8732214 348.762293,77.0193287 348.857005,64.8347809 C348.976425,49.2385596 356.825197,34.6744412 369.809027,24.4451548 C368.775427,24.0934753 367.659468,23.5793352 366.706168,23.0976872" id="Stroke-19"></path>
                        <path d="M6.63130532,12.5246911 C2.94158167,14.9337374 0.388807751,16.6348716 0.429566327,16.7120984 C17.7133474,30.0809111 26.669508,51.6293262 23.9880228,73.3493564 C22.8467827,82.5929722 21.0233727,91.7464902 18.7301666,100.792749 C18.7215858,100.824926 16.1666667,110.572662 16.1559408,110.600549 L12.3696837,124.992616 C12.3696837,124.992616 17.1212755,126.547878 24.3591403,129.244379 C39.0708408,134.72748 64.2961085,145.000786 84.0082426,157.460039 C90.6433096,161.617414 96.8193063,166.216697 101.58806,170.743044 C103.806184,172.849619 105.792628,174.999098 107.465875,177.176464 C107.491617,177.18719 115.225021,176.944783 115.255053,176.957655 C123.273767,176.779604 150.026408,178.281236 171.611292,184.324231 C181.193847,186.962812 189.989119,190.755505 195.491527,195.464193 C198.091495,197.688753 200.071503,200.084928 201.069016,202.858657 C201.262083,202.564766 285.070294,179.600526 306.470691,198.315148 L306.477127,198.321584 C306.498579,198.317293 305.707004,191.868858 305.728456,191.864567 L305.082754,186.450112 C304.658007,183.069296 304.632265,179.613398 304.900413,176.290501 C306.067396,161.85553 313.511199,148.428797 325.571447,139.828738 C325.800982,139.665703 326.030517,139.502669 326.262197,139.34178 C340.643539,129.278702 357.708511,124.031572 375.078099,123.870683 C379.866159,123.83207 384.815108,124.168864 389.596733,124.91539 L385.934897,118.447647 C385.91559,118.409034 380.44965,108.749252 380.432489,108.712783 C374.338009,94.5845741 369.961825,80.0080205 370.019746,65.0045744 C370.094827,45.7944144 379.027391,27.8477702 393.827044,15.2276282 C392.630029,14.7900098 391.415852,14.2150994 390.31108,13.6208822" id="Stroke-21"></path>
                    </g>
                </g>
            </g>
        </g>
    </g>
</svg>