<?xml version="1.0" encoding="UTF-8" standalone="no"?>
<svg width="207px" height="165px" viewBox="0 0 207 165" version="1.1" xmlns="http://www.w3.org/2000/svg" xmlns:xlink="http://www.w3.org/1999/xlink">
    <!-- Generator: Sketch 46.1 (44463) - http://www.bohemiancoding.com/sketch -->
    <title>[Assets]-Spiderweb-1SVG</title>
    <desc>Created with Sketch.</desc>
    <defs>
        <linearGradient x1="43.4723382%" y1="-131.683905%" x2="305.549591%" y2="844.974278%" id="linearGradient-1">
            <stop stop-color="#E2E3E4" offset="0%"></stop>
            <stop stop-color="#DFE5E8" offset="100%"></stop>
        </linearGradient>
        <linearGradient x1="50%" y1="0%" x2="-53.2623839%" y2="281.771385%" id="linearGradient-2">
            <stop stop-color="#EEEEEE" offset="0%"></stop>
            <stop stop-color="#BAAEAE" offset="100%"></stop>
        </linearGradient>
    </defs>
    <g id="Assets" stroke="none" stroke-width="1" fill="none" fill-rule="evenodd">
        <g id="[Assets]-Spiderweb-1">
            <g id="Pajeczyna-Copy" transform="translate(-4.000000, -8.000000)">
                <g id="Group" transform="translate(117.587591, 103.883028) rotate(-34.000000) translate(-117.587591, -103.883028) translate(13.087591, 49.383028)">
                    <g id="Group-25-Copy" transform="translate(10.324470, 0.000000)" stroke="url(#linearGradient-1)" stroke-width="0.5">
                        <path d="M84.3062473,2.39729763 C84.8452261,3.32155027 85.3801601,4.36007048 85.3103861,5.4056692 C85.2537579,6.24902445 84.2192826,7.68899794 84.2192826,7.68899794 C85.0049985,9.07942177 85.3831938,11.37893 84.7956765,12.8644083 L84.5287151,13.5388902 L85.3225207,13.5581033 C86.7190119,13.5338341 88.0528075,14.1415757 88.9487461,15.2134661 C88.9487461,15.2134661 89.8163706,16.2671546 89.8295164,16.2671546 C89.8295164,16.2671546 92.9986715,17.3714039 93.8410155,18.4038568 L94.8906591,19.6921477 L95.2405403,19.209797 C96.3053522,17.5938717 98.0082422,16.5088355 99.9224766,16.2267059 L100.362356,15.5643585 C101.26234,14.2164058 102.723549,13.3457477 104.338463,13.1991212 L105.059461,13.1333921 L104.862273,12.7642977 C103.803529,10.7893903 104.482056,8.33112094 106.40438,7.17833318 L106.092925,6.86687825 C104.594301,5.36825416 104.043187,3.16683402 104.658007,1.13833205" id="Stroke-1"></path>
                        <path d="M77.8651974,4.73776015 C77.6012696,5.77021305 76.4080332,7.31838678 76.1097241,7.51051808 C75.9893892,7.71781763 75.9196152,7.89579188 75.9691649,8.00095848 C77.1533004,9.40655058 77.8146365,11.4249404 77.7034026,13.3947917 C77.6568866,14.2563489 77.5325069,15.1027378 77.3322858,15.9066556 C77.295882,16.0542933 77.1310536,16.6559676 77.0774591,16.7914708 L76.6588151,18.0757168 C76.6588151,18.0757168 77.5850902,18.2081863 77.938005,18.2941397 C79.8471833,18.7603109 82.1527589,19.7159113 84.0133988,21.1144249 C84.3086742,21.3358815 85.3987665,22.4755234 85.6353914,22.6888903 C85.740558,22.7890008 86.0075193,22.9507955 86.3584118,23.1580951 C86.4777354,23.2035999 86.9742431,23.2541607 87.1269369,23.3057328 C88.3869137,23.7385338 91.0383256,24.3654886 92.5460506,25.2523262 C92.9980648,25.3767059 94.3581521,26.7145465 94.6170237,26.9370143 C94.739381,27.0421809 95.1479128,26.7206138 95.19544,26.8510608 C96.1085693,25.4656931 101.473077,23.4371911 104.085052,24.0034728 L104.086063,24.0034728 C104.18314,23.9832484 104.242802,23.6637038 104.341901,23.6485355 L104.454146,23.1773082 C104.434933,23.0185471 104.667513,22.4724897 104.699872,22.3187847 C104.962788,21.0486957 105.936591,20.0000634 107.04084,19.2426616 C107.062075,19.2274933 107.083311,19.2123251 107.105558,19.1991792 C108.430252,18.3072855 109.978426,17.7652731 111.585251,17.7187571 C111.810752,17.7116785 112.693545,17.6732523 112.919046,17.7076337 L112.568154,17.071578 C112.477144,16.9006822 112.148499,16.2696826 112.079736,16.0937308 C111.528622,14.6901611 111.30211,13.2147951 111.50132,11.7808889 C111.75109,9.96170889 112.759274,8.29623395 114.328683,7.17782758 C114.272055,7.15760323 113.931275,6.85524925 113.882736,6.82289029 C112.953428,6.19391311 112.38209,5.15842656 112.032209,4.10574932" id="Stroke-3"></path>
                        <path d="M70.4193008,4.07116568 C69.9511072,5.29271622 68.5970871,6.94706778 68.0004689,7.33234158 C67.7001374,7.64177409 67.5039612,7.88952233 67.5514884,7.98761042 C69.5092052,9.93723744 70.5659273,12.8596555 70.3262688,15.7476922 C70.2251471,16.9985681 70.0188587,18.2302308 69.7205496,19.4184112 C69.6871794,19.5518918 69.4080834,20.5964793 69.359545,20.7188366 L68.7892184,22.6148691 C68.7892184,22.6148691 69.8540303,22.8322809 70.5548039,23.0314907 C73.0110508,23.7292306 76.3976177,25.1247106 79.0783548,27.0146758 C79.6820516,27.4403983 80.9814658,28.6841956 81.4405585,29.1109293 C81.6498805,29.3101391 81.9916719,29.5659771 82.392114,29.8652974 C82.4982918,29.9057461 83.3436695,29.9431612 83.4822063,29.9856323 C85.0061108,30.4427025 88.7809851,30.9968496 91.2513891,32.101099 C92.1554174,32.3498584 93.8249372,33.7372486 94.3436917,34.181173 C94.5884063,34.3915062 95.0555887,34.2317339 95.1496319,34.4926279 C95.9707404,33.2468082 105.129336,30.2394478 108.57152,31.7229037 L108.572531,31.7239149 C108.660507,31.705713 108.672641,31.0828031 108.761628,31.0696573 L108.827358,30.3688837 C108.78792,30.049339 108.98713,29.3829468 109.035668,29.072503 C109.329933,27.1977061 110.586876,25.5514443 112.199767,24.4279818 C112.231115,24.405735 112.261452,24.3855107 112.292799,24.3632639 C114.223213,23.0436253 116.494407,22.2872347 118.831331,22.2376851 C119.283345,22.2275729 120.326921,22.2124046 120.777924,22.2831899 L120.275349,21.3781503 C120.192429,21.2244453 119.616035,20.157611 119.552329,19.9998611 C118.743355,18.0128191 118.312576,15.9367899 118.492573,13.8759289 C118.719086,11.2538424 120.083218,8.83197689 122.252279,7.17762533 C122.139023,7.13616542 121.771951,6.84088996 121.67184,6.77819449 C120.504895,6.03596096 119.737381,4.79216364 119.318737,3.47353624" id="Stroke-5"></path>
                        <path d="M62.9734042,3.40356 C62.3009447,4.8152194 60.7861411,6.57675999 59.8912138,7.15416509 C59.4108855,7.56674176 59.0893184,7.884264 59.1328008,7.97426235 C61.8640988,10.4669131 63.3162069,14.2953819 62.949135,18.1016039 C62.7934075,19.739776 62.5052106,21.3577238 62.1098246,22.9301667 C62.0794881,23.0484791 61.6841021,24.5369911 61.641631,24.6451913 L60.9186106,27.1530103 C60.9186106,27.1530103 62.1270153,27.4442409 63.1705916,27.7678304 C66.1809856,28.7001728 70.6384316,30.5324986 74.1443221,32.9169491 C75.0594738,33.539859 76.5631539,34.8928678 77.2467368,35.5319571 C77.5602142,35.8302662 77.9758245,36.1821699 78.424805,36.5714885 C78.5198595,36.6078924 79.7141071,36.6301391 79.8384869,36.6645205 C81.6293528,37.1488936 86.5236447,37.6271994 89.9577387,38.9488605 C91.3117587,39.3230109 93.2907111,40.7599507 94.0693484,41.426343 C94.4374315,41.7408316 94.9622533,41.7418428 95.1028125,42.1341951 C95.8339227,41.0259009 108.785594,37.0427158 113.058999,39.4433458 C113.058999,39.4433458 113.06001,39.444357 113.06001,39.444357 C113.137874,39.4281775 113.10147,38.5029136 113.180345,38.4917903 L113.200569,37.5584367 C113.140907,37.0811421 113.310792,36.2934038 113.371465,35.8262214 C113.697077,33.3396379 115.23615,31.1038364 117.358695,29.6133021 C117.399144,29.5859992 117.439592,29.5566739 117.480041,29.529371 C120.018196,27.779965 123.010389,26.8091964 126.078422,26.7566131 C126.755938,26.7454897 127.961309,26.7525682 128.637813,26.8577348 L127.981533,25.6857339 C127.907714,25.5482084 127.082561,24.0455394 127.024921,23.9059914 C125.958087,21.3344658 125.323043,18.6597959 125.483826,15.9719802 C125.68607,12.5449647 127.40615,9.36873105 130.176886,7.17742309 C130.008012,7.11573883 129.612626,6.82551946 129.460944,6.73248746 C128.054341,5.87598638 127.093684,4.42590072 126.606277,2.84132316" id="Stroke-7"></path>
                        <path d="M55.5275076,2.73696553 C54.6517934,4.33873379 52.975195,6.20544099 51.7819586,6.97497738 C51.1216337,7.49170944 50.6736644,7.87698324 50.7141131,7.95990306 C54.2189924,10.9975999 56.0664864,15.7290858 55.5720012,20.4545044 C55.3616679,22.4819952 54.9915624,24.4842055 54.4980883,26.4409111 C54.4717967,26.5460777 53.9611319,28.4775028 53.9237169,28.5725572 L53.0490139,31.6911514 C53.0490139,31.6911514 54.4020227,32.0511448 55.7863792,32.5041702 C59.353954,33.6721262 64.8772231,35.9392755 69.2092781,38.8182112 C70.4389184,39.6342636 72.1458533,41.1005287 73.0529152,41.9539962 C73.4715592,42.3524158 73.9609884,42.7973514 74.4585073,43.2786909 C74.5414271,43.3100386 76.085556,43.3161059 76.1947675,43.3423976 C78.2576508,43.8550848 84.265293,44.2575493 88.6630772,45.7976333 C90.4701226,46.2951522 92.7574962,47.7836641 93.7960164,48.6715129 C94.2864568,49.0911681 94.868918,49.2529629 95.0570044,49.7767735 C95.6960937,48.807016 112.441853,43.8449726 117.545467,47.1637879 L117.547489,47.1647991 C117.615241,47.150642 117.53131,45.9230242 117.600072,45.912912 L117.573781,44.7490009 C117.493895,44.1109227 117.636476,43.2038608 117.708273,42.5789285 C118.065232,39.4795474 119.886435,36.6552173 122.517622,34.7996335 C122.567172,34.7642409 122.617733,34.7288483 122.668294,34.6944669 C125.811157,32.517316 129.52637,31.3311581 133.325513,31.2765523 C134.22853,31.2623953 135.594685,31.2917206 136.496691,31.433291 L135.687717,29.9923063 C135.62401,29.8729827 134.548075,27.9334678 134.496503,27.8121218 C133.172819,24.6571237 132.333509,21.3807795 132.475079,18.0670203 C132.654065,13.8370982 134.729083,9.90548521 138.100481,7.17823206 C137.87498,7.09632346 137.455325,6.80812652 137.251059,6.68779166 C135.603786,5.7160118 134.447964,4.05862659 133.892806,2.20911008" id="Stroke-9"></path>
                        <path d="M42.4048246,9.7115036 C41.5041403,10.3497487 40.8864262,10.8121416 40.9158836,10.8719492 C45.3764581,14.5139632 47.7053832,20.2876265 47.0421439,26.0809281 C46.7600663,28.5562479 46.2905322,31.0047881 45.6808519,33.4113738 C45.6647842,33.4765373 45.0095787,35.9652469 44.9863698,36.0259471 L43.946432,39.857203 C43.946432,39.857203 45.399667,40.2892458 47.220674,40.9257056 C51.358109,42.3717994 58.1083319,45.1381232 63.3937154,48.5542966 C65.0352996,49.6147654 66.8982612,51.1126329 68.0935202,52.2427284 C68.6469635,52.7684995 69.2111186,53.329084 69.735997,53.9146627 C69.7886634,53.934301 71.7694548,53.9066289 71.8381889,53.9218039 C74.1430125,54.4243661 81.4109727,54.6439582 86.9927161,56.3881972 C89.3850194,57.0469733 91.9513895,58.4493272 93.3251786,59.6240552 C93.9750282,60.1801764 94.5927423,60.607756 94.8417918,61.3004528 C95.2443772,60.6880946 116.724226,54.5841506 122.696057,59.1322048 C122.741583,59.1250636 122.581798,57.5084736 122.625538,57.502225 L122.520205,56.0659504 C122.41398,55.221503 122.493426,54.2083447 122.573764,53.3799651 C122.946,49.5549578 125.049977,46.0289884 128.271552,43.7438032 C132.300977,40.93731 136.853494,39.5108546 141.498847,39.4564029 C142.694106,39.4439058 144.184832,39.5081766 145.379199,39.6947406 L144.394605,37.9496089 C144.354436,37.8737336 142.963687,35.3930579 142.930658,35.31629 C141.306035,31.4993165 140.205397,27.5502308 140.29734,23.5190212 C140.412491,18.3639647 142.872636,13.5606125 146.909202,10.206032 C146.611056,10.0971286 146.194189,9.84897177 145.92193,9.69454324 C144.040223,8.63139651 142.681609,6.80503363 142.069251,4.7037344" id="Stroke-13"></path>
                        <path d="M27.4538897,6.43923443 C26.2535748,7.265399 25.4284214,7.85898357 25.4577467,7.91864539 C31.284381,12.588447 34.3190442,20.0330291 33.4392851,27.5150261 C33.0661459,30.7074392 32.4503146,33.8664822 31.6635875,36.9769867 C31.6484192,37.0366485 30.7909069,40.2998469 30.7696714,40.3544526 L29.4399206,45.3063839 C29.4399206,45.3063839 31.2338201,45.8574973 33.6344501,46.7139984 C38.882668,48.5898066 47.5892493,52.1543477 54.4048541,56.5207841 C56.5809938,57.9142416 58.8926366,59.726343 60.4691245,61.2209223 C61.202257,61.9156286 61.9151652,62.6457275 62.5582995,63.3990844 C62.6058267,63.4172863 65.2026328,63.3545908 65.2622946,63.3798713 C68.2089819,63.443578 77.4929683,64.1483964 84.7787892,66.3427381 C87.9408658,67.2144074 91.1585593,68.8515683 92.9736944,70.4058093 C93.8322179,71.1399531 94.5906309,71.7851098 94.9192766,72.7002614 C95.2853373,72.1471256 123.410325,64.2535631 131.005578,70.3239007 C131.00659,70.3239007 131.008612,70.3259231 131.008612,70.3259231 C131.048049,70.3178334 130.819514,68.1841648 130.858952,68.1780975 L130.693112,66.3204913 C130.553564,65.2041073 130.617271,63.9350296 130.717381,62.8398812 C131.170407,57.8899724 133.835976,53.3121915 137.994101,50.3564032 C138.073988,50.2997751 138.152862,50.2441581 138.231737,50.1895524 C143.193781,46.7291667 149.072998,44.8978521 155.066484,44.8341454 C156.646005,44.8169547 158.496533,44.9120091 160.074032,45.1587461 L158.806977,42.9128324 C158.769561,42.8450809 156.944314,39.598062 156.913978,39.5292992 C154.815702,34.6218615 153.364605,29.5485842 153.449547,24.3549719 C153.556736,17.7112741 156.6996,11.5165567 161.872987,7.17742309 C161.478613,7.03383023 160.981094,6.75574546 160.619078,6.55451321 C158.245751,5.23285216 156.514547,2.95862437 155.7531,0.311257393" id="Stroke-15"></path>
                        <path d="M14.5287255,10.5474223 C13.0311322,11.4673084 11.9984431,12.1196077 12.0197957,12.1592502 C19.0962395,17.2884489 22.7688857,25.5331877 21.6789328,33.8373901 C21.2149992,37.3727802 20.468629,40.8739336 19.524262,44.3318407 C19.517468,44.3579687 18.4721614,48.0564336 18.4624557,48.0798587 L16.8949812,53.5811563 C16.8949812,53.5811563 18.902125,54.1811996 21.8526653,55.1902814 C27.9692129,57.2805222 38.3572499,61.2267527 46.490647,66.0018719 C49.1849562,67.583968 51.7909432,69.405721 53.7330587,71.1175561 C54.6366616,71.91401 55.4635894,72.7329879 56.1740484,73.5654804 C56.1973422,73.5735891 59.3604378,73.4870964 59.389555,73.497908 C62.7506474,73.4672751 73.7899385,74.0970503 82.630883,76.4413635 C86.5335548,77.4387327 90.2149361,78.9865921 92.4559879,80.7669007 C93.5148825,81.6084028 94.3544276,82.4697262 94.7610975,83.5184504 C94.9367711,83.2724868 129.213508,74.4979801 138.098128,81.5408303 L138.10104,81.5435332 C138.120451,81.5399294 137.808898,79.1001138 137.827338,79.0974109 L137.579842,77.0296942 C137.407081,75.7521246 137.418727,74.4069825 137.532284,73.1510361 C138.029218,67.6398278 141.127285,62.5205397 146.095645,59.2347172 C146.189791,59.1725506 146.284907,59.1103839 146.380023,59.0491182 C152.305368,55.2028949 159.333283,53.194642 166.490284,53.1270695 C168.440164,53.1108521 170.524954,53.2333835 172.471922,53.5144849 L170.961711,51.0368287 C170.944241,51.0070968 168.710954,47.3374628 168.696395,47.30683 C166.186495,41.893827 164.402583,36.3060366 164.447229,30.5623792 C164.503522,23.2104976 168.203345,16.3451377 174.323774,11.5231683 C173.836547,11.3573906 173.310497,11.1150308 172.861122,10.8879874" id="Stroke-19"></path>
                        <path d="M3.125922,5.9039971 C1.38662818,7.03959417 0.183279557,7.84148951 0.202492687,7.87789334 C8.34987074,14.1797998 12.5717031,24.3374779 11.3076814,34.5760534 C10.7697138,38.9333889 9.91017909,43.2482532 8.82918776,47.5125567 C8.82514289,47.527725 7.62078305,52.1226966 7.61572696,52.1358424 L5.83092837,58.9200995 C5.83092837,58.9200995 8.07077476,59.653232 11.482622,60.9243322 C18.4175505,63.5090037 30.3084551,68.3517235 39.6005312,74.2248738 C42.7282264,76.184613 45.6395211,78.352663 47.8874573,80.4863315 C48.933056,81.479347 49.8694432,82.4925867 50.6581928,83.5189723 C50.6703274,83.5240284 54.3157659,83.4097609 54.3299229,83.4158282 C58.1098533,83.3318971 70.7207447,84.0397493 80.8956135,86.8883485 C85.4127213,88.1321458 89.5587124,89.919978 92.1524848,92.1396001 C93.3780802,93.1882325 94.3114338,94.3177622 94.7816499,95.6252662 C94.8726595,95.4867295 134.378898,84.6616479 144.466802,93.4835079 L144.469836,93.4865416 C144.479948,93.4845191 144.106809,90.4447998 144.116921,90.4427774 L143.812545,87.8904649 C143.612324,86.2967863 143.600189,84.6677152 143.726591,83.1013396 C144.276694,76.2968581 147.785618,69.9676488 153.470682,65.9136785 C153.578882,65.836826 153.687082,65.7599735 153.796293,65.6841322 C160.575494,60.9405117 168.619728,58.4670741 176.807555,58.3912328 C179.064592,58.3730309 181.397471,58.531792 183.651474,58.8836956 L181.925326,55.8348754 C181.916225,55.8166735 179.339643,51.2631618 179.331554,51.2459711 C176.458685,44.5860938 174.395802,37.714872 174.423105,30.642418 C174.458497,21.5869667 178.669206,13.1271225 185.645595,7.17813094 C185.081335,6.9718426 184.508986,6.70083636 183.988209,6.42072916" id="Stroke-21"></path>
                    </g>
                    <g id="Group-34-Copy" transform="translate(0.000000, 6.607661)" stroke="url(#linearGradient-2)">
                        <polyline id="Stroke-28" points="105.017954 4.97387705 124.922756 11.8370091 132.471493 16.6413026 162.671499 33.114033 174.338924 41.3503982 208.442229 60.5685836"></polyline>
                        <polyline id="Stroke-30" points="0.00687627787 1.54231103 50.7972893 0.854683239 92.6637093 0.854683239 105.017752 4.97438266 127.668009 0.169077887 205.224333 0.854683239"></polyline>
                        <path d="M1.59327403,60.5681791 C13.4123951,54.5148936 21.5538588,50.2205861 26.017665,47.6852566 C31.0289899,44.8389502 34.8328262,41.2577319 38.4070294,39.4256804 C46.756781,35.1457961 52.2631651,33.0809021 54.9261818,33.2309982 L64.0117156,24.971422 L85.1137585,12.5232212 L91.9768905,7.71892762 L104.331944,4.97347256" id="Stroke-32"></path>
                        <path d="M105.017954,4.97387705 L105.017954,101.061771" id="Stroke-26"></path>
                        <polyline id="Stroke-27" points="105.017954 4.28756384 119.430834 25.5635765 160.61266 96.2577803"></polyline>
                        <polyline id="Stroke-35" points="52.1694101 92.8264166 78.9363329 45.4680752 105.01765 4.97387705"></polyline>
                    </g>
                </g>
            </g>
        </g>
    </g>
</svg>