<?xml version="1.0" encoding="UTF-8" standalone="no"?>
<svg width="214px" height="121px" viewBox="0 0 214 121" version="1.1" xmlns="http://www.w3.org/2000/svg" xmlns:xlink="http://www.w3.org/1999/xlink">
    <!-- Generator: Sketch 46.1 (44463) - http://www.bohemiancoding.com/sketch -->
    <title>[Assets]-Spiderwe-3SVG</title>
    <desc>Created with Sketch.</desc>
    <defs>
        <linearGradient x1="43.4723382%" y1="-131.683905%" x2="305.549591%" y2="844.974278%" id="linearGradient-1">
            <stop stop-color="#E2E3E4" offset="0%"></stop>
            <stop stop-color="#DFE5E8" offset="100%"></stop>
        </linearGradient>
        <linearGradient x1="50%" y1="0%" x2="-53.2623839%" y2="281.771385%" id="linearGradient-2">
            <stop stop-color="#EEEEEE" offset="0%"></stop>
            <stop stop-color="#BAAEAE" offset="100%"></stop>
        </linearGradient>
    </defs>
    <g id="Assets" stroke="none" stroke-width="1" fill="none" fill-rule="evenodd">
        <g id="[Assets]-Spiderwe-3">
            <g id="Pajeczyna-Copy" transform="translate(-7.000000, -7.000000)">
                <g id="Group-Copy" transform="translate(112.726798, 70.332851) rotate(9.000000) translate(-112.726798, -70.332851) translate(7.226798, 15.832851)">
                    <g id="Group-25-Copy" transform="translate(10.416248, 0.000000)" stroke="url(#linearGradient-1)" stroke-width="0.5">
                        <path d="M85.0556732,2.418608 C85.5994432,3.35107662 86.1391324,4.39882857 86.0687381,5.45372197 C86.0116066,6.30457408 84.9679355,7.75734796 84.9679355,7.75734796 C85.7606358,9.16013173 86.142193,11.480081 85.5494531,12.9787642 L85.2801186,13.6592419 L86.0809806,13.6786258 C87.4898856,13.6541408 88.8355378,14.2672849 89.7394407,15.3487036 C89.7394407,15.3487036 90.6147777,16.4117587 90.6280404,16.4117587 C90.6280404,16.4117587 93.8253672,17.525824 94.6751991,18.5674547 L95.7341733,19.8671977 L96.0871647,19.3805592 C97.1614421,17.7502694 98.8794696,16.655588 100.81072,16.3709504 L101.25451,15.7027152 C102.162494,14.3427801 103.636692,13.4643824 105.265962,13.3164525 L105.993369,13.2501391 L105.794428,12.8777638 C104.726272,10.8853007 105.410831,8.40517901 107.350243,7.24214374 L107.03602,6.92792018 C105.524074,5.41597433 104.968061,3.19498505 105.588347,1.14845106" id="Stroke-1"></path>
                        <path d="M78.5573667,4.77987565 C78.2910928,5.82150636 77.0872493,7.38344233 76.7862884,7.57728154 C76.6648838,7.78642385 76.5944896,7.96598017 76.6444797,8.07208163 C77.8391414,9.49016849 78.5063563,11.5265004 78.3941336,13.5138624 C78.3472042,14.3830783 78.2217188,15.236991 78.0197179,16.0480551 C77.9829905,16.1970052 77.8166968,16.804028 77.7626259,16.9407357 L77.3402605,18.2363978 C77.3402605,18.2363978 78.2747695,18.3700448 78.6308215,18.4567623 C80.5569712,18.9270775 82.8830417,19.8911725 84.7602214,21.3021179 C85.0581217,21.5255431 86.1579042,22.6753157 86.3966325,22.8905792 C86.5027339,22.9915797 86.7720684,23.1548127 87.12608,23.363955 C87.2464644,23.4098643 87.7473857,23.4608746 87.9014369,23.5129051 C89.172614,23.9495535 91.8475951,24.5820814 93.3687228,25.4768024 C93.8247551,25.6022878 95.1969327,26.9520208 95.4581055,27.1764662 C95.5815505,27.2825677 95.9937138,26.9581421 96.0416635,27.0897487 C96.9629099,25.692066 102.375105,23.645532 105.010298,24.2168475 L105.011318,24.2168475 C105.109258,24.1964434 105.16945,23.8740582 105.26943,23.8587551 L105.382673,23.3833389 C105.363289,23.2231665 105.597937,22.6722551 105.630583,22.5171837 C105.895837,21.2358045 106.878296,20.1778505 107.992361,19.4137159 C108.013785,19.3984128 108.03521,19.3831097 108.057654,19.369847 C109.394125,18.470025 110.956061,17.9231944 112.577168,17.8762649 C112.804675,17.8691235 113.695315,17.8303556 113.922821,17.8650426 L113.568809,17.2233328 C113.476991,17.0509179 113.145423,16.4143092 113.076049,16.2367933 C112.520037,14.8207468 112.291511,13.3322657 112.492491,11.8856131 C112.744482,10.0502618 113.761628,8.36998189 115.344988,7.24163364 C115.287857,7.22122951 114.944047,6.91618781 114.895077,6.8835412 C113.957508,6.24897284 113.381091,5.20428151 113.0281,4.14224667" id="Stroke-3"></path>
                        <path d="M71.0452811,4.10735561 C70.5729255,5.33976491 69.2068692,7.00882255 68.6049474,7.39752117 C68.3019461,7.70970433 68.1040261,7.95965489 68.1519758,8.05861491 C70.1270953,10.0255728 71.193211,12.9739692 70.9514221,15.8876786 C70.8494014,17.1496739 70.6412793,18.3922853 70.3403184,19.5910278 C70.3066516,19.725695 70.0250747,20.7795682 69.9761048,20.9030132 L69.4007084,22.8159001 C69.4007084,22.8159001 70.4749857,23.0352445 71.1819887,23.2362252 C73.66007,23.9401676 77.0767412,25.3480524 79.7813083,27.2548181 C80.3903715,27.684325 81.7013367,28.9391788 82.1645104,29.3697059 C82.3756931,29.5706866 82.7205228,29.8287988 83.1245246,30.1307799 C83.2316462,30.1715881 84.0845388,30.2093358 84.224307,30.2521844 C85.761758,30.7133177 89.5701884,31.2723908 92.0625526,32.3864562 C92.9746171,32.6374269 94.6589778,34.0371501 95.1823437,34.4850207 C95.4292337,34.6972236 95.900569,34.536031 95.9954482,34.7992442 C96.8238558,33.54235 106.063865,30.5082562 109.536647,32.004899 L109.537668,32.0059192 C109.626426,31.9875555 109.638668,31.3591083 109.728446,31.3458457 L109.79476,30.6388426 C109.754972,30.3164574 109.955952,29.6441414 110.004922,29.3309381 C110.301802,27.4394754 111.569919,25.7785795 113.197148,24.6451302 C113.228774,24.6226856 113.25938,24.6022815 113.291007,24.579837 C115.238581,23.2484676 117.529964,22.4853533 119.887661,22.4353632 C120.343694,22.4251611 121.396547,22.409858 121.851559,22.4812724 L121.344516,21.5681877 C121.260859,21.4131164 120.679341,20.3367986 120.615068,20.1776465 C119.798903,18.1729409 119.364295,16.0784572 119.545892,13.9992766 C119.774418,11.3538815 121.150677,8.91048723 123.339019,7.2414296 C123.224756,7.19960114 122.854421,6.90170088 122.753421,6.83844808 C121.576103,6.0896166 120.801766,4.83476276 120.379401,3.50441364" id="Stroke-5"></path>
                        <path d="M63.5331954,3.43381536 C62.8547582,4.85802346 61.3264891,6.63522297 60.4236064,7.21776081 C59.9390084,7.63400501 59.6145828,7.95434981 59.6584516,8.04514818 C62.414029,10.5599569 63.8790454,14.4224582 63.5087105,18.262515 C63.3515987,19.9152494 63.0608399,21.5475796 62.6619392,23.1340005 C62.631333,23.2533646 62.2324323,24.7551084 62.1895836,24.8642705 L61.4601361,27.3943823 C61.4601361,27.3943823 62.6792827,27.6882018 63.7321357,28.0146678 C66.7692901,28.9552981 71.2663598,30.803912 74.8034153,33.2095587 C75.7267021,33.8380058 77.2437489,35.2030419 77.9334084,35.8478124 C78.2496724,36.1487732 78.6689772,36.5038051 79.1219489,36.8965845 C79.2178483,36.9333119 80.422712,36.9557565 80.5481974,36.9904435 C82.3549829,37.4791223 87.2927817,37.96168 90.7574026,39.2950897 C92.1234589,39.6725661 94.1200028,41.1222793 94.9055617,41.7945953 C95.2769168,42.1118795 95.806404,42.1128997 95.9482126,42.5087398 C96.6858219,41.3905936 109.752625,37.3720007 114.064017,39.7939706 C114.064017,39.7939706 114.065037,39.7949908 114.065037,39.7949908 C114.143593,39.7786675 114.106866,38.8451787 114.186442,38.8339564 L114.206846,37.8923059 C114.146654,37.4107685 114.318049,36.6160278 114.379261,36.1446924 C114.707767,33.6360049 116.260522,31.3803286 118.401935,29.8765444 C118.442743,29.8489989 118.483551,29.8194129 118.52436,29.7918673 C121.085078,28.0269103 124.103868,27.0475121 127.199174,26.9944614 C127.882713,26.9832391 129.098799,26.9903806 129.781317,27.0964821 L129.119203,25.9140629 C129.044728,25.7753148 128.212239,24.2592881 128.154088,24.1184996 C127.07777,21.5241148 126.43708,18.825669 126.599293,16.1139604 C126.803334,12.656481 128.538705,9.45201278 131.334071,7.24122556 C131.163696,7.17899297 130.764796,6.88619374 130.611765,6.79233475 C129.192658,5.92821995 128.223462,4.46524401 127.731722,2.86658062" id="Stroke-7"></path>
                        <path d="M56.0211098,2.76129532 C55.1376111,4.37730222 53.4461089,6.26060319 52.2422654,7.03698024 C51.5760706,7.5583057 51.1241192,7.94700433 51.1649275,8.03066125 C54.7009628,11.0953612 56.5648798,15.8689068 56.0659989,20.6363312 C55.853796,22.681845 55.4804005,24.7018536 54.9825397,26.675953 C54.9560144,26.7820545 54.4408102,28.7306486 54.4030625,28.826548 L53.520584,31.9728645 C53.520584,31.9728645 54.8856201,32.336058 56.2822827,32.7931104 C59.8815708,33.9714488 65.453938,36.2587515 69.8245021,39.163279 C71.0650731,39.9865856 72.7871814,41.4658848 73.7023065,42.326939 C74.124672,42.7289003 74.6184519,43.1777911 75.1203934,43.6634094 C75.2040503,43.6950358 76.7619055,43.701157 76.8720878,43.7276824 C78.9533088,44.244927 85.0143548,44.6509691 89.4512324,46.2047434 C91.2743412,46.706685 93.582048,48.2084288 94.6297999,49.10417 C95.1246,49.5275556 95.7122389,49.6907886 95.9019973,50.2192555 C96.5467677,49.2408776 113.441385,44.2347249 118.590367,47.5830423 L118.592407,47.5840625 C118.660761,47.5697796 118.576084,46.331249 118.645458,46.321047 L118.618933,45.1467894 C118.538336,44.5030392 118.682185,43.5879141 118.75462,42.9574265 C119.114753,39.830494 120.952145,36.9810576 123.606722,35.1089789 C123.656712,35.0732717 123.707722,35.0375644 123.758732,35.0028774 C126.929534,32.8063731 130.677772,31.609671 134.510687,31.5545799 C135.421732,31.540297 136.800031,31.569883 137.710055,31.7127119 L136.893889,30.2589178 C136.829616,30.1385334 135.744117,28.1817776 135.692086,28.0593528 C134.356636,24.8763089 133.509865,21.5708403 133.652694,18.227624 C133.83327,13.9601007 135.926734,9.99353832 139.328102,7.24204172 C139.100596,7.15940501 138.67721,6.86864619 138.471129,6.74724163 C136.809212,5.7668233 135.643116,4.09470505 135.083023,2.22874759" id="Stroke-9"></path>
                        <path d="M42.7817751,9.79783234 C41.8730842,10.441751 41.249879,10.9082543 41.2795984,10.9685935 C45.7798243,14.6429826 48.129452,20.4679699 47.4603169,26.31277 C47.1757319,28.8100937 46.7020239,31.2803999 46.086924,33.7083785 C46.0707135,33.7741213 45.4096837,36.2849538 45.3862684,36.3461936 L44.3370863,40.2115067 C44.3370863,40.2115067 45.8032395,40.6473901 47.6404341,41.2895076 C51.814648,42.7484562 58.6248759,45.5393708 63.9572429,48.9859117 C65.6134197,50.0558073 67.4929418,51.5669898 68.6988258,52.7071311 C69.2571888,53.237576 69.8263589,53.8031437 70.3559032,54.3939279 C70.4090378,54.4137407 72.4074371,54.3858226 72.4767822,54.4011325 C74.802094,54.9081622 82.1346615,55.1297062 87.7660229,56.8894504 C90.1795922,57.5540825 92.7687756,58.9689024 94.1547768,60.154073 C94.8104031,60.7151378 95.4336082,61.1465183 95.6848716,61.8453726 C96.0910357,61.227571 117.761826,55.069367 123.786743,59.6578504 C123.832673,59.6506457 123.671468,58.0196853 123.715597,58.0133812 L123.609328,56.564339 C123.502158,55.7123851 123.58231,54.6902205 123.663363,53.8544771 C124.038907,49.9954681 126.161587,46.4381552 129.4118,44.1326562 C133.477043,41.3012152 138.07003,39.8620795 142.756677,39.8071438 C143.962561,39.7945356 145.466539,39.8593778 146.671522,40.0476001 L145.678176,38.2869554 C145.63765,38.2104056 144.234538,35.7076784 144.201216,35.6302281 C142.56215,31.7793243 141.451728,27.7951338 141.544489,23.7280895 C141.660664,18.527208 144.142678,13.6811572 148.215126,10.2967567 C147.91433,10.1868853 147.493757,9.93652251 147.219078,9.78072121 C145.320644,8.70812383 143.949953,6.86552581 143.332151,4.74554744" id="Stroke-13"></path>
                        <path d="M27.6979364,6.4964749 C26.4869514,7.32998351 25.654463,7.92884466 25.684049,7.98903683 C31.5624781,12.7003499 34.6241175,20.2111092 33.7365379,27.7596162 C33.3600818,30.9804077 32.7387761,34.1675325 31.9450555,37.3056873 C31.9297524,37.3658794 31.0646174,40.6580854 31.0431931,40.7131766 L29.7016217,45.7091272 C29.7016217,45.7091272 31.5114678,46.2651397 33.9334377,47.1292545 C39.2283088,49.0217373 48.0122857,52.6179648 54.8884767,57.0232159 C57.0839608,58.4290603 59.4161526,60.2572701 61.0066544,61.7651351 C61.746304,62.4660169 62.4655495,63.2026059 63.1144007,63.9626597 C63.1623504,63.9810234 65.7822404,63.9177706 65.8424326,63.9432758 C68.815314,64.0075488 78.1818287,64.7186326 85.5324156,66.9324804 C88.722601,67.8118983 91.9688977,69.4636125 93.8001681,71.0316697 C94.6663233,71.7723395 95.4314781,72.4232312 95.7630452,73.3465179 C96.1323599,72.788465 124.50736,64.8247341 132.17013,70.9490329 C132.17115,70.9490329 132.173191,70.9510734 132.173191,70.9510734 C132.212979,70.9429117 131.982412,68.7902762 132.0222,68.784155 L131.854886,66.9100359 C131.714098,65.7837281 131.778371,64.5033691 131.879371,63.3984855 C132.336424,58.4045753 135.025688,53.7861011 139.220776,50.8040378 C139.301373,50.7469063 139.380949,50.6907949 139.460525,50.6357038 C144.466677,47.1445576 150.398157,45.2969638 156.44492,45.2326908 C158.038483,45.2153473 159.90546,45.3112467 161.496982,45.5601771 L160.218664,43.2942987 C160.180916,43.2259449 158.339444,39.9500622 158.308838,39.8806882 C156.191909,34.9296266 154.727913,29.8112512 154.81361,24.5714713 C154.921752,17.8687154 158.092554,11.6189311 163.31193,7.24122556 C162.914049,7.09635625 162.412108,6.8157995 162.046874,6.61277843 C159.652449,5.2793687 157.905856,2.98492456 157.137641,0.314024262" id="Stroke-15"></path>
                        <path d="M14.6578761,10.6411818 C13.1469702,11.5692451 12.1051012,12.2273429 12.1266436,12.2673378 C19.2659922,17.4421316 22.9712858,25.7601605 21.871644,34.1381818 C21.4035863,37.7049991 20.6505813,41.2372754 19.6978195,44.7259209 C19.6909651,44.7522812 18.6363665,48.483623 18.6265745,48.5072563 L17.0451662,54.0574568 C17.0451662,54.0574568 19.0701522,54.6628341 22.0469208,55.6808859 C28.2178404,57.7897076 38.6982201,61.7710174 46.9039177,66.5885842 C49.6221774,68.184744 52.2513299,70.0226912 54.2107095,71.7497434 C55.1223449,72.5532772 55.9566234,73.3795353 56.673398,74.2194281 C56.6968988,74.2276089 59.8881122,74.1403473 59.9174882,74.151255 C63.3084585,74.1203499 74.4458814,74.7557233 83.365416,77.1208759 C87.30278,78.127111 91.0168863,79.6887298 93.2778595,81.4848641 C94.3461669,82.3338467 95.1931751,83.2028266 95.60346,84.2608734 C95.7806952,84.0127232 130.362129,75.1602171 139.325728,82.2656735 L139.328665,82.2684005 C139.348249,82.2647646 139.033926,79.8032607 139.052531,79.8005337 L138.802835,77.7144364 C138.628537,76.4255101 138.640288,75.0684106 138.754854,73.8012997 C139.256205,68.2411005 142.381812,63.0763053 147.394337,59.761274 C147.48932,59.6985548 147.585281,59.6358355 147.681243,59.5740252 C153.65926,55.6936116 160.749649,53.6675066 167.970271,53.5993335 C169.937484,53.5829719 172.040806,53.7065925 174.005082,53.9901927 L172.481446,51.4905118 C172.463821,51.4605156 170.210681,47.7582611 170.195993,47.7273559 C167.663781,42.266235 165.864011,36.6287729 165.909055,30.8340582 C165.965848,23.4168234 169.698559,16.490435 175.873396,11.6256015 C175.381837,11.4583501 174.851111,11.2138359 174.397741,10.9847742" id="Stroke-19"></path>
                        <path d="M3.15370934,5.95647967 C1.39895438,7.10217143 0.184908789,7.91119509 0.20429271,7.94792251 C8.42409549,14.3058487 12.6834571,24.5538217 11.4081991,34.8834113 C10.8654493,39.2794805 9.99827392,43.6327011 8.90767331,47.9349114 C8.90359248,47.9502145 7.68852669,52.5860323 7.68342566,52.599295 L5.8827614,59.4438596 C5.8827614,59.4438596 8.14251853,60.1835092 11.5846948,61.4659086 C18.5812702,64.0735561 30.5778769,68.9593244 39.9525533,74.8846831 C43.1080517,76.861843 46.0452258,79.0491655 48.3131446,81.201801 C49.368038,82.2036436 50.3127491,83.2258904 51.1085101,84.2613999 C51.1207525,84.2665009 54.7985965,84.1512176 54.8128794,84.1573388 C58.6264109,84.0726617 71.3494046,84.7868062 81.6147211,87.6607275 C86.171983,88.9155814 90.3548292,90.7193062 92.9716585,92.9586592 C94.2081486,94.0166133 95.1497991,95.1561838 95.6241951,96.4753106 C95.7160137,96.3355423 135.573436,85.4142331 145.751015,94.3145135 L145.754076,94.3175741 C145.764278,94.3155337 145.387822,91.2487934 145.398024,91.2467529 L145.090942,88.671752 C144.888941,87.0639068 144.876698,85.4203543 145.004224,83.8400546 C145.559216,76.9750859 149.099333,70.5896142 154.834933,66.4996069 C154.944095,66.4220712 155.053257,66.3445355 155.163439,66.26802 C162.002903,61.4822319 170.118644,58.9868071 178.379256,58.9102916 C180.656356,58.8919279 183.009972,59.0521003 185.284012,59.4071321 L183.54252,56.3312099 C183.533338,56.3128462 180.933852,51.7188569 180.925691,51.7015134 C178.027284,44.9824342 175.946063,38.0501319 175.973609,30.9148085 C176.009316,21.7788604 180.257455,13.2438138 187.295859,7.2419397 C186.726584,7.0338176 186.149147,6.76040229 185.623741,6.47780513" id="Stroke-21"></path>
                    </g>
                    <g id="Group-34-Copy" transform="translate(0.000000, 6.666399)" stroke="url(#linearGradient-2)">
                        <polyline id="Stroke-28" points="105.951493 5.01809147 126.033235 11.9422321 133.649076 16.7892326 164.117539 33.4083945 175.88868 41.7179755 210.29514 61.1069976"></polyline>
                        <polyline id="Stroke-30" points="0.00693740336 1.55602113 51.2488431 0.862280799 93.4874275 0.862280799 105.951289 5.01860158 128.802891 0.170580876 207.04864 0.862280799"></polyline>
                        <path d="M1.60743717,61.1065896 C13.5316223,54.9994944 21.7454581,50.6670134 26.2489446,48.1091465 C31.3048168,45.2375384 35.1424667,41.6244855 38.748442,39.7761482 C47.1724174,35.4582186 52.7277496,33.3749691 55.4144386,33.5263995 L64.5807367,25.1934012 L85.8703626,12.6345442 L92.7945033,7.7875437 L105.259385,5.01768339" id="Stroke-32"></path>
                        <path d="M105.951493,5.01809147 L105.951493,101.960142" id="Stroke-26"></path>
                        <polyline id="Stroke-27" points="105.951493 4.32567741 120.492494 25.7908196 162.040399 97.1134473"></polyline>
                        <polyline id="Stroke-35" points="52.6331611 93.651581 79.6380239 45.8722558 105.951187 5.01809147"></polyline>
                    </g>
                </g>
            </g>
        </g>
    </g>
</svg>